# xmcd CD database file
#
# Track frame offsets:
#	150
#	9730
#	28451
#	36697
#	44854
#	58798
#	70579
#	83771
#	94205
#	105679
#	115224
#	125952
#	138690
#	146312
#	165413
#	180038
#	189306
#
# Disc length: 2653 seconds
#
# Revision: 0
# Processed by: cddbd v1.5.2PL0 Copyright (c) Steve Scherf et al.
# Submitted via: CDex 1.70beta2
#
DISCID=f80a5b11
DTITLE=Sestka Sextett - Sestka Sextett - CD "D"
DYEAR=2003
DGENRE=Country
TTITLE0=Urlaubspolka
TTITLE1=Das Lieben
TTITLE2=Schmerz und Kummer
TTITLE3=Die Schellen
TTITLE4=Weisse Rose
TTITLE5=An der Piava
TTITLE6=Das ist Sie
TTITLE7=Senserl
TTITLE8=Schwirren der Amsel
TTITLE9=Aus Böhmischen Regionen
TTITLE10=Österreicherin
TTITLE11=Schicksalsweg
TTITLE12=Tausendmal schön
TTITLE13=Märchen
TTITLE14=Loiserl
TTITLE15=Mädchens Kummer
TTITLE16=Emma
EXTD=YEAR: 2003
EXTT0=
EXTT1=
EXTT2=
EXTT3=
EXTT4=
EXTT5=
EXTT6=
EXTT7=
EXTT8=
EXTT9=
EXTT10=
EXTT11=
EXTT12=
EXTT13=
EXTT14=
EXTT15=
EXTT16=
PLAYORDER=
